<mxfile host="app.diagrams.net" modified="2021-08-04T01:46:21.272Z" agent="5.0 (Windows NT 10.0; Win64; x64) AppleWebKit/537.36 (KHTML, like Gecko) Chrome/92.0.4515.107 Safari/537.36" etag="UwpgDdCi_q0_dyo8-MOs" version="14.9.3" type="github">
  <diagram id="R2lEEEUBdFMjLlhIrx00" name="Page-1">
    <mxGraphModel dx="2272" dy="705" grid="1" gridSize="10" guides="1" tooltips="1" connect="1" arrows="1" fold="1" page="1" pageScale="1" pageWidth="850" pageHeight="1100" math="0" shadow="0" extFonts="Permanent Marker^https://fonts.googleapis.com/css?family=Permanent+Marker">
      <root>
        <mxCell id="0" />
        <mxCell id="1" parent="0" />
        <mxCell id="S0gjLGhWarH3GufDuR3c-13" value="employe" style="shape=table;startSize=30;container=1;collapsible=1;childLayout=tableLayout;fixedRows=1;rowLines=0;fontStyle=1;align=center;resizeLast=1;" vertex="1" parent="1">
          <mxGeometry x="170" y="100" width="330" height="310" as="geometry" />
        </mxCell>
        <mxCell id="S0gjLGhWarH3GufDuR3c-14" value="" style="shape=partialRectangle;collapsible=0;dropTarget=0;pointerEvents=0;fillColor=none;top=0;left=0;bottom=0;right=0;points=[[0,0.5],[1,0.5]];portConstraint=eastwest;" vertex="1" parent="S0gjLGhWarH3GufDuR3c-13">
          <mxGeometry y="30" width="330" height="30" as="geometry" />
        </mxCell>
        <mxCell id="S0gjLGhWarH3GufDuR3c-15" value="PK" style="shape=partialRectangle;connectable=0;fillColor=none;top=0;left=0;bottom=0;right=0;fontStyle=1;overflow=hidden;" vertex="1" parent="S0gjLGhWarH3GufDuR3c-14">
          <mxGeometry width="60" height="30" as="geometry" />
        </mxCell>
        <mxCell id="S0gjLGhWarH3GufDuR3c-16" value="id bigint NOT NULL" style="shape=partialRectangle;connectable=0;fillColor=none;top=0;left=0;bottom=0;right=0;align=left;spacingLeft=6;fontStyle=5;overflow=hidden;" vertex="1" parent="S0gjLGhWarH3GufDuR3c-14">
          <mxGeometry x="60" width="270" height="30" as="geometry" />
        </mxCell>
        <mxCell id="S0gjLGhWarH3GufDuR3c-17" value="" style="shape=partialRectangle;collapsible=0;dropTarget=0;pointerEvents=0;fillColor=none;top=0;left=0;bottom=1;right=0;points=[[0,0.5],[1,0.5]];portConstraint=eastwest;" vertex="1" parent="S0gjLGhWarH3GufDuR3c-13">
          <mxGeometry y="60" width="330" height="30" as="geometry" />
        </mxCell>
        <mxCell id="S0gjLGhWarH3GufDuR3c-18" value="FK" style="shape=partialRectangle;connectable=0;fillColor=none;top=0;left=0;bottom=0;right=0;fontStyle=1;overflow=hidden;" vertex="1" parent="S0gjLGhWarH3GufDuR3c-17">
          <mxGeometry width="60" height="30" as="geometry" />
        </mxCell>
        <mxCell id="S0gjLGhWarH3GufDuR3c-19" value="	id_service bigint NOT NULL" style="shape=partialRectangle;connectable=0;fillColor=none;top=0;left=0;bottom=0;right=0;align=left;spacingLeft=6;fontStyle=5;overflow=hidden;" vertex="1" parent="S0gjLGhWarH3GufDuR3c-17">
          <mxGeometry x="60" width="270" height="30" as="geometry" />
        </mxCell>
        <mxCell id="S0gjLGhWarH3GufDuR3c-20" value="" style="shape=partialRectangle;collapsible=0;dropTarget=0;pointerEvents=0;fillColor=none;top=0;left=0;bottom=0;right=0;points=[[0,0.5],[1,0.5]];portConstraint=eastwest;" vertex="1" parent="S0gjLGhWarH3GufDuR3c-13">
          <mxGeometry y="90" width="330" height="30" as="geometry" />
        </mxCell>
        <mxCell id="S0gjLGhWarH3GufDuR3c-21" value="" style="shape=partialRectangle;connectable=0;fillColor=none;top=0;left=0;bottom=0;right=0;editable=1;overflow=hidden;" vertex="1" parent="S0gjLGhWarH3GufDuR3c-20">
          <mxGeometry width="60" height="30" as="geometry" />
        </mxCell>
        <mxCell id="S0gjLGhWarH3GufDuR3c-22" value="first_name VARCHAR(50) NOT NULL" style="shape=partialRectangle;connectable=0;fillColor=none;top=0;left=0;bottom=0;right=0;align=left;spacingLeft=6;overflow=hidden;" vertex="1" parent="S0gjLGhWarH3GufDuR3c-20">
          <mxGeometry x="60" width="270" height="30" as="geometry" />
        </mxCell>
        <mxCell id="S0gjLGhWarH3GufDuR3c-26" value="" style="shape=partialRectangle;collapsible=0;dropTarget=0;pointerEvents=0;fillColor=none;top=0;left=0;bottom=0;right=0;points=[[0,0.5],[1,0.5]];portConstraint=eastwest;" vertex="1" parent="S0gjLGhWarH3GufDuR3c-13">
          <mxGeometry y="120" width="330" height="30" as="geometry" />
        </mxCell>
        <mxCell id="S0gjLGhWarH3GufDuR3c-27" value="" style="shape=partialRectangle;connectable=0;fillColor=none;top=0;left=0;bottom=0;right=0;editable=1;overflow=hidden;" vertex="1" parent="S0gjLGhWarH3GufDuR3c-26">
          <mxGeometry width="60" height="30" as="geometry" />
        </mxCell>
        <mxCell id="S0gjLGhWarH3GufDuR3c-28" value="last_name VARCHAR(50) NOT NULL" style="shape=partialRectangle;connectable=0;fillColor=none;top=0;left=0;bottom=0;right=0;align=left;spacingLeft=6;overflow=hidden;" vertex="1" parent="S0gjLGhWarH3GufDuR3c-26">
          <mxGeometry x="60" width="270" height="30" as="geometry" />
        </mxCell>
        <mxCell id="S0gjLGhWarH3GufDuR3c-29" value="" style="shape=partialRectangle;collapsible=0;dropTarget=0;pointerEvents=0;fillColor=none;top=0;left=0;bottom=0;right=0;points=[[0,0.5],[1,0.5]];portConstraint=eastwest;" vertex="1" parent="S0gjLGhWarH3GufDuR3c-13">
          <mxGeometry y="150" width="330" height="30" as="geometry" />
        </mxCell>
        <mxCell id="S0gjLGhWarH3GufDuR3c-30" value="" style="shape=partialRectangle;connectable=0;fillColor=none;top=0;left=0;bottom=0;right=0;editable=1;overflow=hidden;" vertex="1" parent="S0gjLGhWarH3GufDuR3c-29">
          <mxGeometry width="60" height="30" as="geometry" />
        </mxCell>
        <mxCell id="S0gjLGhWarH3GufDuR3c-31" value="address VARCHAR(100) NOT NULL" style="shape=partialRectangle;connectable=0;fillColor=none;top=0;left=0;bottom=0;right=0;align=left;spacingLeft=6;overflow=hidden;" vertex="1" parent="S0gjLGhWarH3GufDuR3c-29">
          <mxGeometry x="60" width="270" height="30" as="geometry" />
        </mxCell>
        <mxCell id="S0gjLGhWarH3GufDuR3c-32" value="" style="shape=partialRectangle;collapsible=0;dropTarget=0;pointerEvents=0;fillColor=none;top=0;left=0;bottom=0;right=0;points=[[0,0.5],[1,0.5]];portConstraint=eastwest;" vertex="1" parent="S0gjLGhWarH3GufDuR3c-13">
          <mxGeometry y="180" width="330" height="30" as="geometry" />
        </mxCell>
        <mxCell id="S0gjLGhWarH3GufDuR3c-33" value="" style="shape=partialRectangle;connectable=0;fillColor=none;top=0;left=0;bottom=0;right=0;editable=1;overflow=hidden;" vertex="1" parent="S0gjLGhWarH3GufDuR3c-32">
          <mxGeometry width="60" height="30" as="geometry" />
        </mxCell>
        <mxCell id="S0gjLGhWarH3GufDuR3c-34" value="telephone_number VARCHAR(50) NOT NULL" style="shape=partialRectangle;connectable=0;fillColor=none;top=0;left=0;bottom=0;right=0;align=left;spacingLeft=6;overflow=hidden;" vertex="1" parent="S0gjLGhWarH3GufDuR3c-32">
          <mxGeometry x="60" width="270" height="30" as="geometry" />
        </mxCell>
        <mxCell id="S0gjLGhWarH3GufDuR3c-35" value="" style="shape=partialRectangle;collapsible=0;dropTarget=0;pointerEvents=0;fillColor=none;top=0;left=0;bottom=0;right=0;points=[[0,0.5],[1,0.5]];portConstraint=eastwest;" vertex="1" parent="S0gjLGhWarH3GufDuR3c-13">
          <mxGeometry y="210" width="330" height="30" as="geometry" />
        </mxCell>
        <mxCell id="S0gjLGhWarH3GufDuR3c-36" value="" style="shape=partialRectangle;connectable=0;fillColor=none;top=0;left=0;bottom=0;right=0;editable=1;overflow=hidden;" vertex="1" parent="S0gjLGhWarH3GufDuR3c-35">
          <mxGeometry width="60" height="30" as="geometry" />
        </mxCell>
        <mxCell id="S0gjLGhWarH3GufDuR3c-37" value="hiring_date DATE NOT NULL" style="shape=partialRectangle;connectable=0;fillColor=none;top=0;left=0;bottom=0;right=0;align=left;spacingLeft=6;overflow=hidden;" vertex="1" parent="S0gjLGhWarH3GufDuR3c-35">
          <mxGeometry x="60" width="270" height="30" as="geometry" />
        </mxCell>
        <mxCell id="S0gjLGhWarH3GufDuR3c-38" value="" style="shape=partialRectangle;collapsible=0;dropTarget=0;pointerEvents=0;fillColor=none;top=0;left=0;bottom=0;right=0;points=[[0,0.5],[1,0.5]];portConstraint=eastwest;" vertex="1" parent="S0gjLGhWarH3GufDuR3c-13">
          <mxGeometry y="240" width="330" height="30" as="geometry" />
        </mxCell>
        <mxCell id="S0gjLGhWarH3GufDuR3c-39" value="" style="shape=partialRectangle;connectable=0;fillColor=none;top=0;left=0;bottom=0;right=0;editable=1;overflow=hidden;" vertex="1" parent="S0gjLGhWarH3GufDuR3c-38">
          <mxGeometry width="60" height="30" as="geometry" />
        </mxCell>
        <mxCell id="S0gjLGhWarH3GufDuR3c-40" value="type_employee VARCHAR(50) NOT NULL" style="shape=partialRectangle;connectable=0;fillColor=none;top=0;left=0;bottom=0;right=0;align=left;spacingLeft=6;overflow=hidden;" vertex="1" parent="S0gjLGhWarH3GufDuR3c-38">
          <mxGeometry x="60" width="270" height="30" as="geometry" />
        </mxCell>
        <mxCell id="S0gjLGhWarH3GufDuR3c-23" value="" style="shape=partialRectangle;collapsible=0;dropTarget=0;pointerEvents=0;fillColor=none;top=0;left=0;bottom=0;right=0;points=[[0,0.5],[1,0.5]];portConstraint=eastwest;" vertex="1" parent="S0gjLGhWarH3GufDuR3c-13">
          <mxGeometry y="270" width="330" height="30" as="geometry" />
        </mxCell>
        <mxCell id="S0gjLGhWarH3GufDuR3c-24" value="" style="shape=partialRectangle;connectable=0;fillColor=none;top=0;left=0;bottom=0;right=0;editable=1;overflow=hidden;" vertex="1" parent="S0gjLGhWarH3GufDuR3c-23">
          <mxGeometry width="60" height="30" as="geometry" />
        </mxCell>
        <mxCell id="S0gjLGhWarH3GufDuR3c-25" value="date_birth DATE NOT NULL" style="shape=partialRectangle;connectable=0;fillColor=none;top=0;left=0;bottom=0;right=0;align=left;spacingLeft=6;overflow=hidden;" vertex="1" parent="S0gjLGhWarH3GufDuR3c-23">
          <mxGeometry x="60" width="270" height="30" as="geometry" />
        </mxCell>
        <mxCell id="S0gjLGhWarH3GufDuR3c-41" value="service" style="shape=table;startSize=30;container=1;collapsible=1;childLayout=tableLayout;fixedRows=1;rowLines=0;fontStyle=1;align=center;resizeLast=1;" vertex="1" parent="1">
          <mxGeometry x="-230" y="110" width="290" height="280" as="geometry" />
        </mxCell>
        <mxCell id="S0gjLGhWarH3GufDuR3c-42" value="" style="shape=partialRectangle;collapsible=0;dropTarget=0;pointerEvents=0;fillColor=none;top=0;left=0;bottom=0;right=0;points=[[0,0.5],[1,0.5]];portConstraint=eastwest;" vertex="1" parent="S0gjLGhWarH3GufDuR3c-41">
          <mxGeometry y="30" width="290" height="30" as="geometry" />
        </mxCell>
        <mxCell id="S0gjLGhWarH3GufDuR3c-43" value="PK" style="shape=partialRectangle;connectable=0;fillColor=none;top=0;left=0;bottom=0;right=0;fontStyle=1;overflow=hidden;" vertex="1" parent="S0gjLGhWarH3GufDuR3c-42">
          <mxGeometry width="60" height="30" as="geometry" />
        </mxCell>
        <mxCell id="S0gjLGhWarH3GufDuR3c-44" value="id bigint NOT NULL" style="shape=partialRectangle;connectable=0;fillColor=none;top=0;left=0;bottom=0;right=0;align=left;spacingLeft=6;fontStyle=5;overflow=hidden;" vertex="1" parent="S0gjLGhWarH3GufDuR3c-42">
          <mxGeometry x="60" width="230" height="30" as="geometry" />
        </mxCell>
        <mxCell id="S0gjLGhWarH3GufDuR3c-45" value="" style="shape=partialRectangle;collapsible=0;dropTarget=0;pointerEvents=0;fillColor=none;top=0;left=0;bottom=1;right=0;points=[[0,0.5],[1,0.5]];portConstraint=eastwest;" vertex="1" parent="S0gjLGhWarH3GufDuR3c-41">
          <mxGeometry y="60" width="290" height="30" as="geometry" />
        </mxCell>
        <mxCell id="S0gjLGhWarH3GufDuR3c-46" value="FK" style="shape=partialRectangle;connectable=0;fillColor=none;top=0;left=0;bottom=0;right=0;fontStyle=1;overflow=hidden;" vertex="1" parent="S0gjLGhWarH3GufDuR3c-45">
          <mxGeometry width="60" height="30" as="geometry" />
        </mxCell>
        <mxCell id="S0gjLGhWarH3GufDuR3c-47" value="id_type_service NOT NULL" style="shape=partialRectangle;connectable=0;fillColor=none;top=0;left=0;bottom=0;right=0;align=left;spacingLeft=6;fontStyle=5;overflow=hidden;" vertex="1" parent="S0gjLGhWarH3GufDuR3c-45">
          <mxGeometry x="60" width="230" height="30" as="geometry" />
        </mxCell>
        <mxCell id="S0gjLGhWarH3GufDuR3c-48" value="" style="shape=partialRectangle;collapsible=0;dropTarget=0;pointerEvents=0;fillColor=none;top=0;left=0;bottom=0;right=0;points=[[0,0.5],[1,0.5]];portConstraint=eastwest;" vertex="1" parent="S0gjLGhWarH3GufDuR3c-41">
          <mxGeometry y="90" width="290" height="30" as="geometry" />
        </mxCell>
        <mxCell id="S0gjLGhWarH3GufDuR3c-49" value="" style="shape=partialRectangle;connectable=0;fillColor=none;top=0;left=0;bottom=0;right=0;editable=1;overflow=hidden;" vertex="1" parent="S0gjLGhWarH3GufDuR3c-48">
          <mxGeometry width="60" height="30" as="geometry" />
        </mxCell>
        <mxCell id="S0gjLGhWarH3GufDuR3c-50" value="code INTEGER NOT NULL" style="shape=partialRectangle;connectable=0;fillColor=none;top=0;left=0;bottom=0;right=0;align=left;spacingLeft=6;overflow=hidden;" vertex="1" parent="S0gjLGhWarH3GufDuR3c-48">
          <mxGeometry x="60" width="230" height="30" as="geometry" />
        </mxCell>
        <mxCell id="S0gjLGhWarH3GufDuR3c-51" value="" style="shape=partialRectangle;collapsible=0;dropTarget=0;pointerEvents=0;fillColor=none;top=0;left=0;bottom=0;right=0;points=[[0,0.5],[1,0.5]];portConstraint=eastwest;" vertex="1" parent="S0gjLGhWarH3GufDuR3c-41">
          <mxGeometry y="120" width="290" height="30" as="geometry" />
        </mxCell>
        <mxCell id="S0gjLGhWarH3GufDuR3c-52" value="" style="shape=partialRectangle;connectable=0;fillColor=none;top=0;left=0;bottom=0;right=0;editable=1;overflow=hidden;" vertex="1" parent="S0gjLGhWarH3GufDuR3c-51">
          <mxGeometry width="60" height="30" as="geometry" />
        </mxCell>
        <mxCell id="S0gjLGhWarH3GufDuR3c-53" value="description VARCHAR(200) NOT NULL" style="shape=partialRectangle;connectable=0;fillColor=none;top=0;left=0;bottom=0;right=0;align=left;spacingLeft=6;overflow=hidden;" vertex="1" parent="S0gjLGhWarH3GufDuR3c-51">
          <mxGeometry x="60" width="230" height="30" as="geometry" />
        </mxCell>
        <mxCell id="S0gjLGhWarH3GufDuR3c-102" value="" style="shape=partialRectangle;collapsible=0;dropTarget=0;pointerEvents=0;fillColor=none;top=0;left=0;bottom=0;right=0;points=[[0,0.5],[1,0.5]];portConstraint=eastwest;" vertex="1" parent="S0gjLGhWarH3GufDuR3c-41">
          <mxGeometry y="150" width="290" height="30" as="geometry" />
        </mxCell>
        <mxCell id="S0gjLGhWarH3GufDuR3c-103" value="" style="shape=partialRectangle;connectable=0;fillColor=none;top=0;left=0;bottom=0;right=0;editable=1;overflow=hidden;" vertex="1" parent="S0gjLGhWarH3GufDuR3c-102">
          <mxGeometry width="60" height="30" as="geometry" />
        </mxCell>
        <mxCell id="S0gjLGhWarH3GufDuR3c-104" value="urgence BOOLEAN NULL" style="shape=partialRectangle;connectable=0;fillColor=none;top=0;left=0;bottom=0;right=0;align=left;spacingLeft=6;overflow=hidden;" vertex="1" parent="S0gjLGhWarH3GufDuR3c-102">
          <mxGeometry x="60" width="230" height="30" as="geometry" />
        </mxCell>
        <mxCell id="S0gjLGhWarH3GufDuR3c-105" value="" style="shape=partialRectangle;collapsible=0;dropTarget=0;pointerEvents=0;fillColor=none;top=0;left=0;bottom=0;right=0;points=[[0,0.5],[1,0.5]];portConstraint=eastwest;" vertex="1" parent="S0gjLGhWarH3GufDuR3c-41">
          <mxGeometry y="180" width="290" height="30" as="geometry" />
        </mxCell>
        <mxCell id="S0gjLGhWarH3GufDuR3c-106" value="" style="shape=partialRectangle;connectable=0;fillColor=none;top=0;left=0;bottom=0;right=0;editable=1;overflow=hidden;" vertex="1" parent="S0gjLGhWarH3GufDuR3c-105">
          <mxGeometry width="60" height="30" as="geometry" />
        </mxCell>
        <mxCell id="S0gjLGhWarH3GufDuR3c-107" value="date_start DATE NULL" style="shape=partialRectangle;connectable=0;fillColor=none;top=0;left=0;bottom=0;right=0;align=left;spacingLeft=6;overflow=hidden;" vertex="1" parent="S0gjLGhWarH3GufDuR3c-105">
          <mxGeometry x="60" width="230" height="30" as="geometry" />
        </mxCell>
        <mxCell id="S0gjLGhWarH3GufDuR3c-108" value="" style="shape=partialRectangle;collapsible=0;dropTarget=0;pointerEvents=0;fillColor=none;top=0;left=0;bottom=0;right=0;points=[[0,0.5],[1,0.5]];portConstraint=eastwest;" vertex="1" parent="S0gjLGhWarH3GufDuR3c-41">
          <mxGeometry y="210" width="290" height="30" as="geometry" />
        </mxCell>
        <mxCell id="S0gjLGhWarH3GufDuR3c-109" value="" style="shape=partialRectangle;connectable=0;fillColor=none;top=0;left=0;bottom=0;right=0;editable=1;overflow=hidden;" vertex="1" parent="S0gjLGhWarH3GufDuR3c-108">
          <mxGeometry width="60" height="30" as="geometry" />
        </mxCell>
        <mxCell id="S0gjLGhWarH3GufDuR3c-110" value="date_end DATE NULL" style="shape=partialRectangle;connectable=0;fillColor=none;top=0;left=0;bottom=0;right=0;align=left;spacingLeft=6;overflow=hidden;" vertex="1" parent="S0gjLGhWarH3GufDuR3c-108">
          <mxGeometry x="60" width="230" height="30" as="geometry" />
        </mxCell>
        <mxCell id="S0gjLGhWarH3GufDuR3c-67" value="" style="shape=partialRectangle;collapsible=0;dropTarget=0;pointerEvents=0;fillColor=none;top=0;left=0;bottom=0;right=0;points=[[0,0.5],[1,0.5]];portConstraint=eastwest;" vertex="1" parent="S0gjLGhWarH3GufDuR3c-41">
          <mxGeometry y="240" width="290" height="30" as="geometry" />
        </mxCell>
        <mxCell id="S0gjLGhWarH3GufDuR3c-68" value="" style="shape=partialRectangle;connectable=0;fillColor=none;top=0;left=0;bottom=0;right=0;editable=1;overflow=hidden;" vertex="1" parent="S0gjLGhWarH3GufDuR3c-67">
          <mxGeometry width="60" height="30" as="geometry" />
        </mxCell>
        <mxCell id="S0gjLGhWarH3GufDuR3c-69" value="date_delivery DATE NULL" style="shape=partialRectangle;connectable=0;fillColor=none;top=0;left=0;bottom=0;right=0;align=left;spacingLeft=6;overflow=hidden;" vertex="1" parent="S0gjLGhWarH3GufDuR3c-67">
          <mxGeometry x="60" width="230" height="30" as="geometry" />
        </mxCell>
        <mxCell id="S0gjLGhWarH3GufDuR3c-72" style="edgeStyle=orthogonalEdgeStyle;rounded=0;orthogonalLoop=1;jettySize=auto;html=1;exitX=1;exitY=0.5;exitDx=0;exitDy=0;entryX=0;entryY=0.5;entryDx=0;entryDy=0;endArrow=ERmany;endFill=0;" edge="1" parent="1" source="S0gjLGhWarH3GufDuR3c-42" target="S0gjLGhWarH3GufDuR3c-17">
          <mxGeometry relative="1" as="geometry" />
        </mxCell>
        <mxCell id="S0gjLGhWarH3GufDuR3c-73" style="edgeStyle=orthogonalEdgeStyle;rounded=0;orthogonalLoop=1;jettySize=auto;html=1;exitX=1;exitY=0.5;exitDx=0;exitDy=0;entryX=1;entryY=0.5;entryDx=0;entryDy=0;endArrow=ERmany;endFill=0;" edge="1" parent="1" source="S0gjLGhWarH3GufDuR3c-88" target="S0gjLGhWarH3GufDuR3c-45">
          <mxGeometry relative="1" as="geometry">
            <mxPoint x="40" y="565" as="sourcePoint" />
            <Array as="points">
              <mxPoint x="100" y="515" />
              <mxPoint x="100" y="185" />
            </Array>
          </mxGeometry>
        </mxCell>
        <mxCell id="S0gjLGhWarH3GufDuR3c-87" value="type_service" style="shape=table;startSize=30;container=1;collapsible=1;childLayout=tableLayout;fixedRows=1;rowLines=0;fontStyle=1;align=center;resizeLast=1;" vertex="1" parent="1">
          <mxGeometry x="-210" y="470" width="260" height="190" as="geometry" />
        </mxCell>
        <mxCell id="S0gjLGhWarH3GufDuR3c-88" value="" style="shape=partialRectangle;collapsible=0;dropTarget=0;pointerEvents=0;fillColor=none;top=0;left=0;bottom=1;right=0;points=[[0,0.5],[1,0.5]];portConstraint=eastwest;" vertex="1" parent="S0gjLGhWarH3GufDuR3c-87">
          <mxGeometry y="30" width="260" height="30" as="geometry" />
        </mxCell>
        <mxCell id="S0gjLGhWarH3GufDuR3c-89" value="PK" style="shape=partialRectangle;connectable=0;fillColor=none;top=0;left=0;bottom=0;right=0;fontStyle=1;overflow=hidden;" vertex="1" parent="S0gjLGhWarH3GufDuR3c-88">
          <mxGeometry width="30" height="30" as="geometry" />
        </mxCell>
        <mxCell id="S0gjLGhWarH3GufDuR3c-90" value="id bigint NOT NULL" style="shape=partialRectangle;connectable=0;fillColor=none;top=0;left=0;bottom=0;right=0;align=left;spacingLeft=6;fontStyle=5;overflow=hidden;" vertex="1" parent="S0gjLGhWarH3GufDuR3c-88">
          <mxGeometry x="30" width="230" height="30" as="geometry" />
        </mxCell>
        <mxCell id="S0gjLGhWarH3GufDuR3c-91" value="" style="shape=partialRectangle;collapsible=0;dropTarget=0;pointerEvents=0;fillColor=none;top=0;left=0;bottom=0;right=0;points=[[0,0.5],[1,0.5]];portConstraint=eastwest;" vertex="1" parent="S0gjLGhWarH3GufDuR3c-87">
          <mxGeometry y="60" width="260" height="30" as="geometry" />
        </mxCell>
        <mxCell id="S0gjLGhWarH3GufDuR3c-92" value="" style="shape=partialRectangle;connectable=0;fillColor=none;top=0;left=0;bottom=0;right=0;editable=1;overflow=hidden;" vertex="1" parent="S0gjLGhWarH3GufDuR3c-91">
          <mxGeometry width="30" height="30" as="geometry" />
        </mxCell>
        <mxCell id="S0gjLGhWarH3GufDuR3c-93" value="code VARCHAR(50) NOT NULL" style="shape=partialRectangle;connectable=0;fillColor=none;top=0;left=0;bottom=0;right=0;align=left;spacingLeft=6;overflow=hidden;" vertex="1" parent="S0gjLGhWarH3GufDuR3c-91">
          <mxGeometry x="30" width="230" height="30" as="geometry" />
        </mxCell>
        <mxCell id="S0gjLGhWarH3GufDuR3c-94" value="" style="shape=partialRectangle;collapsible=0;dropTarget=0;pointerEvents=0;fillColor=none;top=0;left=0;bottom=0;right=0;points=[[0,0.5],[1,0.5]];portConstraint=eastwest;" vertex="1" parent="S0gjLGhWarH3GufDuR3c-87">
          <mxGeometry y="90" width="260" height="30" as="geometry" />
        </mxCell>
        <mxCell id="S0gjLGhWarH3GufDuR3c-95" value="" style="shape=partialRectangle;connectable=0;fillColor=none;top=0;left=0;bottom=0;right=0;editable=1;overflow=hidden;" vertex="1" parent="S0gjLGhWarH3GufDuR3c-94">
          <mxGeometry width="30" height="30" as="geometry" />
        </mxCell>
        <mxCell id="S0gjLGhWarH3GufDuR3c-96" value="description VARCHAR(200) NOT NULL" style="shape=partialRectangle;connectable=0;fillColor=none;top=0;left=0;bottom=0;right=0;align=left;spacingLeft=6;overflow=hidden;" vertex="1" parent="S0gjLGhWarH3GufDuR3c-94">
          <mxGeometry x="30" width="230" height="30" as="geometry" />
        </mxCell>
        <mxCell id="S0gjLGhWarH3GufDuR3c-111" value="" style="shape=partialRectangle;collapsible=0;dropTarget=0;pointerEvents=0;fillColor=none;top=0;left=0;bottom=0;right=0;points=[[0,0.5],[1,0.5]];portConstraint=eastwest;" vertex="1" parent="S0gjLGhWarH3GufDuR3c-87">
          <mxGeometry y="120" width="260" height="30" as="geometry" />
        </mxCell>
        <mxCell id="S0gjLGhWarH3GufDuR3c-112" value="" style="shape=partialRectangle;connectable=0;fillColor=none;top=0;left=0;bottom=0;right=0;editable=1;overflow=hidden;" vertex="1" parent="S0gjLGhWarH3GufDuR3c-111">
          <mxGeometry width="30" height="30" as="geometry" />
        </mxCell>
        <mxCell id="S0gjLGhWarH3GufDuR3c-113" value="date_start DATE NULL" style="shape=partialRectangle;connectable=0;fillColor=none;top=0;left=0;bottom=0;right=0;align=left;spacingLeft=6;overflow=hidden;" vertex="1" parent="S0gjLGhWarH3GufDuR3c-111">
          <mxGeometry x="30" width="230" height="30" as="geometry" />
        </mxCell>
        <mxCell id="S0gjLGhWarH3GufDuR3c-97" value="" style="shape=partialRectangle;collapsible=0;dropTarget=0;pointerEvents=0;fillColor=none;top=0;left=0;bottom=0;right=0;points=[[0,0.5],[1,0.5]];portConstraint=eastwest;" vertex="1" parent="S0gjLGhWarH3GufDuR3c-87">
          <mxGeometry y="150" width="260" height="30" as="geometry" />
        </mxCell>
        <mxCell id="S0gjLGhWarH3GufDuR3c-98" value="" style="shape=partialRectangle;connectable=0;fillColor=none;top=0;left=0;bottom=0;right=0;editable=1;overflow=hidden;" vertex="1" parent="S0gjLGhWarH3GufDuR3c-97">
          <mxGeometry width="30" height="30" as="geometry" />
        </mxCell>
        <mxCell id="S0gjLGhWarH3GufDuR3c-99" value="date_end DATE NULL" style="shape=partialRectangle;connectable=0;fillColor=none;top=0;left=0;bottom=0;right=0;align=left;spacingLeft=6;overflow=hidden;" vertex="1" parent="S0gjLGhWarH3GufDuR3c-97">
          <mxGeometry x="30" width="230" height="30" as="geometry" />
        </mxCell>
      </root>
    </mxGraphModel>
  </diagram>
</mxfile>
